<?xml version="1.0" encoding="UTF-8" standalone="no"?>
<!-- Created with Inkscape (http://www.inkscape.org/) -->

<svg
   width="210mm"
   height="297mm"
   viewBox="0 0 210 297"
   version="1.1"
   id="svg1"
   xml:space="preserve"
   inkscape:version="1.4 (86a8ad7, 2024-10-11)"
   sodipodi:docname="logo_mirow_azul_e_branco.svg"
   xmlns:inkscape="http://www.inkscape.org/namespaces/inkscape"
   xmlns:sodipodi="http://sodipodi.sourceforge.net/DTD/sodipodi-0.dtd"
   xmlns="http://www.w3.org/2000/svg"
   xmlns:svg="http://www.w3.org/2000/svg"><sodipodi:namedview
     id="namedview1"
     pagecolor="#ffffff"
     bordercolor="#000000"
     borderopacity="0.25"
     inkscape:showpageshadow="2"
     inkscape:pageopacity="0.0"
     inkscape:pagecheckerboard="0"
     inkscape:deskcolor="#d1d1d1"
     inkscape:document-units="mm"
     inkscape:zoom="0.56136801"
     inkscape:cx="730.35868"
     inkscape:cy="522.82994"
     inkscape:window-width="1920"
     inkscape:window-height="991"
     inkscape:window-x="-9"
     inkscape:window-y="-9"
     inkscape:window-maximized="1"
     inkscape:current-layer="layer1"
     inkscape:export-bgcolor="#ffffff00"
     showguides="false"><inkscape:page
       x="0"
       y="0"
       width="210"
       height="297"
       id="page5"
       margin="0"
       bleed="0" /><inkscape:page
       x="227.17569"
       y="-0.47131888"
       width="211.62217"
       height="298.81617"
       id="page6" /></sodipodi:namedview><defs
     id="defs1" /><g
     inkscape:label="Camada 1"
     inkscape:groupmode="layer"
     id="layer1"><rect
       style="display:inline;fill:#030e67;fill-opacity:1;stroke-width:0.752227;stroke-linecap:round;stroke-linejoin:round"
       id="rect5"
       width="209.10098"
       height="297.79721"
       x="0.92082804"
       y="0.50947195"
       ry="0"
       sodipodi:insensitive="true" /><g
       id="g7"
       transform="translate(2.7604121,7.7498001e-5)"><path
         style="fill:#8eced8;fill-opacity:1;stroke-width:1.61865"
         d="m 354.98322,155.51025 -0.42431,0.0202 -0.34348,-0.0359 -0.34349,-0.0359 -0.39222,-0.0997 -0.39221,-0.0997 -0.33998,-0.15927 -0.33997,-0.15928 -0.25786,-0.17487 -0.25787,-0.17487 -0.19442,-0.18156 -0.1944,-0.18155 -0.18396,-0.24471 -0.18396,-0.2447 -0.13224,-0.2627 -0.13224,-0.26269 -0.0897,-0.28286 -0.0895,-0.28287 -0.0214,-0.46709 -0.0214,-0.46708 0.069,-0.34112 0.069,-0.34113 0.11897,-0.28617 0.11897,-0.28618 0.20919,-0.31998 0.20921,-0.31999 0.40612,-0.40877 0.40611,-0.40878 0.50513,-0.37321 0.50513,-0.37321 0.0353,-0.0332 0.0353,-0.0332 -0.33313,-0.37687 -0.33313,-0.37687 -0.29949,-0.39742 -0.2995,-0.39741 -0.16089,-0.31994 -0.16089,-0.31994 -0.0596,-0.25249 -0.0596,-0.25251 -5.8e-4,-0.37806 -6e-4,-0.37806 0.0641,-0.24761 0.0641,-0.2476 0.11541,-0.23246 0.11525,-0.23244 0.1201,-0.17455 0.1201,-0.17454 0.25931,-0.24027 0.25929,-0.24026 0.22796,-0.13548 0.22795,-0.13564 0.23841,-0.0963 0.23841,-0.0963 0.25779,-0.0711 0.25777,-0.0711 0.64657,2.4e-4 0.64657,2.6e-4 0.28288,0.0735 0.28287,0.0735 0.3839,0.18736 0.38389,0.18736 0.30525,0.30441 0.30524,0.30442 0.14843,0.28703 0.14843,0.28704 0.061,0.25849 0.0609,0.2585 6e-4,0.28652 5.9e-4,0.28652 -0.0783,0.30626 -0.0783,0.30628 -0.089,0.17501 -0.089,0.17501 -0.15944,0.23535 -0.15944,0.23535 -0.26814,0.28425 -0.26815,0.28426 -0.32438,0.25953 -0.32436,0.25953 -0.4757,0.325 -0.47571,0.32501 0.39489,0.41573 0.39488,0.41575 1.39416,1.4601 1.39416,1.46011 0.12739,-0.27249 0.12739,-0.27248 0.14082,-0.4052 0.14082,-0.40518 0.0657,-0.32238 0.0657,-0.32241 0.0387,-0.3388 0.0387,-0.3388 0.0173,-0.0173 0.0173,-0.0173 0.50913,-0.13564 0.50915,-0.13564 0.003,0.0273 0.003,0.0274 -0.005,0.24247 -0.005,0.24246 -0.061,0.42431 -0.0612,0.4243 -0.10165,0.40376 -0.10165,0.40374 -0.14034,0.36405 -0.14034,0.36405 -0.22117,0.41835 -0.22117,0.41836 0.83953,0.86816 0.83953,0.86817 0.35688,0.3804 0.35688,0.38041 h -0.82469 -0.8247 l -0.31839,-0.33338 -0.31837,-0.33339 -0.42171,-0.43414 -0.42169,-0.43415 -0.29361,0.27891 -0.2936,0.27889 -0.29677,0.20952 -0.29674,0.20953 -0.38391,0.19306 -0.3839,0.19306 -0.32146,0.10747 -0.32145,0.10748 -0.32511,0.0563 -0.3251,0.0563 z m 0.0202,-1.04083 0.64657,-0.0146 0.28287,-0.0853 0.28288,-0.0853 0.36369,-0.17588 0.3637,-0.17589 0.32327,-0.24533 0.32328,-0.24536 0.18106,-0.18611 0.18106,-0.18611 -0.0396,-0.0558 -0.0397,-0.0558 -1.89869,-1.99991 -1.8987,-1.99989 -0.17787,0.12706 -0.17787,0.12707 -0.43309,0.36942 -0.43308,0.36944 -0.28241,0.32628 -0.28241,0.32627 -0.12852,0.24124 -0.12852,0.24126 -0.0798,0.31212 -0.0798,0.31213 v 0.32854 0.32852 l 0.0618,0.23757 0.0618,0.23755 0.12803,0.2403 0.12804,0.24029 0.18134,0.20169 0.18133,0.20168 0.28006,0.19668 0.28006,0.19669 0.30903,0.11913 0.30904,0.11913 0.28224,0.0628 0.28224,0.0628 z m -0.67035,-6.93412 h 0.0288 l 0.35563,-0.24268 0.35565,-0.24269 0.34902,-0.27237 0.34901,-0.27235 0.29359,-0.27868 0.29361,-0.2787 0.14875,-0.30096 0.14876,-0.30097 0.017,-0.35681 0.017,-0.35682 -0.0691,-0.21957 -0.0691,-0.21955 -0.1486,-0.19792 -0.14859,-0.19789 -0.25424,-0.17088 -0.25424,-0.17088 -0.20978,-0.063 -0.20978,-0.063 -0.30367,-0.024 -0.30366,-0.024 -0.29634,0.05 -0.29633,0.05 -0.31214,0.1562 -0.31216,0.1562 -0.22475,0.23562 -0.22474,0.23563 -0.10101,0.19987 -0.101,0.19987 -0.0487,0.23577 -0.0487,0.23576 0.0282,0.24231 0.0282,0.24231 0.13597,0.26953 0.13597,0.2695 0.24318,0.32329 0.24319,0.32328 0.36813,0.41421 0.36814,0.4142 z"
         id="path2-1"
         sodipodi:nodetypes="ccccccccccccccccccccccccccccccccccccccccccccccccccccccccccccccccccccccccccccccccccccccccccccccccccccccccccccccccccccccccccccccccccccccccccccccccccccccccccccccccccccccccccccccccccccccccccccccccccccccccccccccccccc" /><path
         style="fill:#020e66;fill-opacity:1;stroke-width:1.61865"
         d="m 313.86527,155.6128 c -1.03723,-0.0772 -1.99075,-0.48402 -2.67673,-1.1421 -0.54066,-0.51866 -0.82495,-0.96832 -1.0585,-1.67418 -0.26684,-0.80643 -0.34887,-1.99366 -0.31195,-4.51476 0.0308,-2.098 0.0976,-2.69018 0.389,-3.44447 0.47253,-1.22315 1.4984,-2.10548 2.86373,-2.46305 0.52884,-0.13856 1.50669,-0.17538 2.07621,-0.0783 1.68741,0.28762 2.91904,1.34206 3.36781,2.88326 0.22957,0.78844 0.2394,0.94032 0.23996,3.70873 5.4e-4,2.65321 -0.0113,2.89576 -0.18196,3.58576 -0.19141,0.77594 -0.50865,1.34756 -1.05004,1.89201 -0.41135,0.41366 -0.79608,0.67856 -1.29108,0.8889 -0.38492,0.16358 -0.98529,0.31591 -1.35211,0.3431 -0.15766,0.0113 -0.35929,0.0266 -0.4482,0.0332 -0.0889,0.006 -0.34368,-0.002 -0.56614,-0.0181 z m 1.3939,-1.49042 c 0.89752,-0.26015 1.58212,-0.92321 1.83712,-1.77938 0.17104,-0.57425 0.195,-0.91531 0.21382,-3.0435 0.0193,-2.17537 -0.0113,-2.86606 -0.15231,-3.52318 -0.30337,-1.40663 -1.45854,-2.22607 -3.02942,-2.14899 -0.72896,0.0358 -1.32325,0.24518 -1.78969,0.63063 -0.52305,0.43221 -0.80001,0.95829 -0.93856,1.7827 -0.10295,0.61227 -0.15345,2.66396 -0.10311,4.18081 0.0452,1.35767 0.0923,1.76095 0.26408,2.25486 0.3064,0.88103 1.04573,1.50097 2.03615,1.70735 0.40062,0.0835 1.27354,0.0513 1.66198,-0.0613 z m 16.75075,1.50457 c -1.57124,-0.0738 -2.78609,-0.97339 -3.20908,-2.37613 -0.21858,-0.72493 -0.21622,-0.66445 -0.23396,-5.96921 l -0.0165,-4.91997 h 0.72959 0.72959 l 10e-4,4.37442 c 8.1e-4,2.40595 0.0181,4.66539 0.0385,5.02099 0.0586,1.02237 0.21705,1.49657 0.6416,1.91991 0.38244,0.38136 0.87856,0.56579 1.51917,0.56473 0.90824,-0.001 1.56057,-0.36623 1.89761,-1.06104 0.29416,-0.60644 0.28022,-0.3302 0.2956,-5.85864 l 0.0146,-4.96037 h 0.72354 0.72354 l 0.0162,4.89976 c 0.0146,4.38966 0.0233,4.93552 0.0843,5.24324 0.22327,1.12611 0.96584,1.73892 2.1049,1.73705 0.90632,-0.001 1.57146,-0.37557 1.89868,-1.06788 0.15798,-0.33411 0.21099,-0.54939 0.2646,-1.07327 0.023,-0.22436 0.0397,-2.32771 0.04,-5.0614 l 7e-4,-4.6775 h 0.72739 0.72739 v 4.72101 c 0,3.13246 -0.0146,4.86951 -0.0444,5.16241 -0.10052,1.00055 -0.39198,1.72664 -0.91707,2.2848 -0.69976,0.74387 -1.55049,1.09097 -2.6755,1.09162 -1.24893,7.3e-4 -2.21308,-0.45806 -2.79663,-1.33076 l -0.14326,-0.21424 -0.18442,0.25847 c -0.63018,0.8831 -1.70134,1.35105 -2.95746,1.292 z m 43.54217,-0.0181 c -1.75282,-0.12285 -3.15344,-1.17632 -3.67102,-2.76122 -0.24598,-0.75324 -0.32806,-1.73393 -0.32806,-3.91924 0,-2.55269 0.11184,-3.52467 0.50272,-4.37077 0.28213,-0.61066 0.78524,-1.20342 1.34152,-1.58062 0.73067,-0.49545 1.58807,-0.73653 2.61956,-0.73653 0.9038,0 1.75,0.20097 2.54021,0.60329 0.50079,0.25497 0.93173,0.55864 0.88359,0.62263 -0.0194,0.0259 -0.21174,0.27827 -0.42729,0.56092 l -0.3919,0.51391 -0.21123,-0.16089 c -0.30936,-0.23562 -0.90071,-0.5126 -1.35186,-0.63319 -0.34149,-0.0913 -0.47976,-0.10602 -1.02132,-0.10861 -0.53822,-0.003 -0.6716,0.01 -0.94782,0.0897 -0.96841,0.27893 -1.63087,0.95957 -1.87665,1.92817 -0.12625,0.49783 -0.16319,0.98458 -0.19006,2.50977 -0.0275,1.56078 0.0264,3.19278 0.1235,3.74183 0.19627,1.10905 0.79262,1.82942 1.80622,2.1818 0.3698,0.12852 0.39181,0.13127 1.06459,0.12949 0.61395,-0.002 0.72938,-0.013 1.0859,-0.10942 0.49154,-0.13273 0.95946,-0.35556 1.38021,-0.65743 l 0.32036,-0.22985 0.13532,0.15636 c 0.26179,0.30246 0.73532,0.89461 0.73532,0.91952 0,0.0716 -0.7247,0.54701 -1.15005,0.75458 -0.9341,0.45583 -1.8787,0.63254 -2.97179,0.55595 z m 17.98261,0.003 c -0.93871,-0.0617 -1.79528,-0.38613 -2.49292,-0.9443 -0.85682,-0.68555 -1.3446,-1.66744 -1.51583,-3.05132 -0.0733,-0.59251 -0.0737,-4.73017 -3.4e-4,-5.35437 0.14697,-1.25249 0.52845,-2.11549 1.25008,-2.82775 0.79217,-0.78187 1.88238,-1.19309 3.1631,-1.19309 2.13667,0 3.76448,1.17547 4.25794,3.07468 0.18853,0.72557 0.20742,1.05473 0.20742,3.61325 0,2.54364 -0.0188,2.87808 -0.20242,3.60193 -0.29108,1.14748 -1.0346,2.08294 -2.0645,2.59748 -0.79049,0.39492 -1.61608,0.54828 -2.60253,0.48349 z m 1.31334,-1.46888 c 0.47413,-0.13014 0.90379,-0.37653 1.23291,-0.70681 0.34805,-0.34926 0.5162,-0.63888 0.66097,-1.13842 0.18451,-0.63674 0.20745,-1.01363 0.20745,-3.4092 0,-2.3832 -0.0235,-2.73613 -0.22729,-3.40507 -0.37139,-1.21938 -1.52393,-1.9378 -2.97761,-1.85606 -1.37284,0.0772 -2.31282,0.81062 -2.63009,2.05213 -0.15377,0.60155 -0.18395,1.13514 -0.18395,3.24941 0,2.11243 0.0299,2.64205 0.1837,3.25303 0.10036,0.39846 0.35075,0.89835 0.58086,1.15936 0.33899,0.38451 0.9157,0.70136 1.53663,0.84424 0.32336,0.0745 1.28244,0.049 1.61642,-0.0426 z m 6.92644,1.47123 c -0.51371,-0.0809 -0.83873,-0.5141 -0.79496,-1.05939 0.0474,-0.59092 0.414,-0.91805 1.0287,-0.91805 0.64901,0 1.09296,0.57415 0.94728,1.22512 -0.11962,0.53488 -0.60384,0.84329 -1.18102,0.75232 z m -144.29127,-5.05874 c 0.0144,-5.45375 0.008,-5.30553 0.2564,-6.04807 0.28194,-0.84341 0.87306,-1.49874 1.7135,-1.89965 0.60157,-0.28693 0.87894,-0.34174 1.73765,-0.3433 0.83103,-0.002 1.03259,0.0345 1.56285,0.27922 0.52321,0.24147 0.9339,0.58851 1.21768,1.02898 l 0.14196,0.22031 0.0643,-0.0981 c 0.61651,-0.94085 1.62763,-1.45189 2.87545,-1.45332 0.72371,-8.2e-4 1.18974,0.10748 1.79558,0.41739 0.25159,0.12868 0.40844,0.25077 0.70727,0.5506 0.44448,0.4459 0.60599,0.70008 0.79422,1.24985 0.27492,0.80295 0.26653,0.62283 0.28472,6.11627 l 0.0165,4.96038 h -0.72959 -0.72957 l -0.001,-4.41483 c -10e-4,-4.64098 -0.023,-5.46157 -0.15782,-5.98375 -0.26656,-1.03241 -1.03966,-1.56674 -2.18474,-1.50997 -1.0709,0.0531 -1.71745,0.59422 -1.9647,1.64432 -0.0657,0.27925 -0.0725,0.69443 -0.0855,5.28365 l -0.0146,4.98058 h -0.72353 -0.72356 l -0.0162,-4.91997 c -0.0146,-4.41443 -0.023,-4.95525 -0.0842,-5.26344 -0.12868,-0.64798 -0.45963,-1.16672 -0.92097,-1.44393 -0.62214,-0.37385 -1.68068,-0.38458 -2.34361,-0.0238 -0.40925,0.22274 -0.7659,0.71465 -0.90176,1.24374 -0.12752,0.4966 -0.14262,1.10528 -0.14265,5.75006 l -4e-5,4.65731 h -0.72888 -0.72889 z m 22.94287,-1.60631 v -6.58689 h 0.72739 0.72739 v 6.58689 6.5869 h -0.72739 -0.72739 z m 11.21005,6.53083 c -0.0129,-0.0319 -0.0146,-2.52812 -0.005,-5.54726 0.0162,-5.03319 0.0227,-5.51452 0.0871,-5.79241 0.0981,-0.42373 0.27266,-0.76751 0.53144,-1.04702 0.27994,-0.30236 0.54037,-0.46957 0.93668,-0.60139 0.29925,-0.0995 0.36144,-0.10489 1.42297,-0.12075 1.65222,-0.0249 2.36287,0.078 3.13636,0.45437 1.64505,0.80027 2.45394,2.75549 1.95361,4.72217 -0.26432,1.03894 -0.87475,1.81496 -1.91303,2.43195 -0.0602,0.0358 0.0636,0.35099 1.08564,2.76442 0.63452,1.4982 1.15365,2.7393 1.15365,2.75801 0,0.0186 -0.35023,0.034 -0.77831,0.034 h -0.77831 l -1.07031,-2.57052 -1.07031,-2.57051 -0.2022,0.0243 c -0.1112,0.0129 -0.83398,0.0244 -1.60616,0.0246 l -1.40397,3.6e-4 -0.01,2.53574 -0.01,2.53575 -0.71819,0.0113 c -0.59358,0.01 -0.72205,9.9e-4 -0.74042,-0.0469 z m 4.26882,-6.45006 c 0.99872,-0.0947 1.59102,-0.39853 2.01619,-1.03422 0.29248,-0.43728 0.41321,-0.83968 0.43743,-1.45786 0.0549,-1.40204 -0.61388,-2.37035 -1.8537,-2.68385 -0.29087,-0.0735 -0.49704,-0.0887 -1.45359,-0.10651 -0.94868,-0.0178 -1.14802,-0.0113 -1.33866,0.0442 -0.29288,0.0851 -0.48995,0.29486 -0.5529,0.58838 -0.0296,0.13856 -0.0448,0.96281 -0.0448,2.44952 v 2.2408 l 1.18201,-4e-5 c 0.6501,-10e-6 1.3737,-0.0183 1.608,-0.0405 z"
         id="path1-7" /></g><g
       id="g5"
       transform="matrix(1.199432,0,0,1.199432,-12.172076,-53.210023)"
       inkscape:export-filename="g5.svg"
       inkscape:export-xdpi="300"
       inkscape:export-ydpi="300"><path
         style="fill:#8eced8;fill-opacity:1;stroke-width:1.36702"
         d="m 118.59758,173.72297 -0.35835,0.0171 -0.29008,-0.0303 -0.29009,-0.0303 -0.33124,-0.0842 -0.33124,-0.0842 -0.28713,-0.13452 -0.28712,-0.13451 -0.21778,-0.1477 -0.21778,-0.14767 -0.16419,-0.15334 -0.16418,-0.15333 -0.15536,-0.20666 -0.15536,-0.20667 -0.11168,-0.22185 -0.11169,-0.22185 -0.0757,-0.23889 -0.0756,-0.2389 -0.018,-0.39448 -0.018,-0.39447 0.0582,-0.28808 0.0582,-0.2881 0.10048,-0.24169 0.10047,-0.24169 0.17668,-0.27023 0.17668,-0.27024 0.34299,-0.34523 0.34297,-0.34523 0.4266,-0.31519 0.42661,-0.31519 0.0298,-0.028 0.0298,-0.028 -0.28135,-0.31828 -0.28134,-0.31829 -0.25293,-0.33563 -0.25294,-0.33563 -0.13588,-0.2702 -0.13588,-0.2702 -0.0503,-0.21325 -0.0503,-0.21325 -4.9e-4,-0.31928 -5.1e-4,-0.31929 0.0541,-0.20912 0.0541,-0.20911 0.0975,-0.19632 0.0973,-0.1963 0.10143,-0.14742 0.10143,-0.14741 0.219,-0.20291 0.21898,-0.20291 0.19252,-0.11442 0.19252,-0.11456 0.20134,-0.0813 0.20135,-0.0813 0.21771,-0.06 0.2177,-0.06 0.54606,2.1e-4 0.54605,2.2e-4 0.2389,0.0621 0.2389,0.0621 0.32421,0.15824 0.32422,0.15823 0.25779,0.25708 0.25779,0.25709 0.12536,0.24242 0.12535,0.24241 0.0515,0.21831 0.0514,0.21831 5.1e-4,0.24198 5e-4,0.24198 -0.0662,0.25865 -0.0662,0.25867 -0.0752,0.1478 -0.0752,0.1478 -0.13465,0.19876 -0.13465,0.19877 -0.22646,0.24006 -0.22646,0.24006 -0.27395,0.21919 -0.27393,0.21919 -0.40176,0.27447 -0.40175,0.27448 0.3335,0.3511 0.33349,0.35112 1.17743,1.23312 1.17742,1.23312 0.10759,-0.23013 0.10758,-0.23012 0.11893,-0.34221 0.11893,-0.34219 0.0555,-0.27227 0.0555,-0.27228 0.0327,-0.28613 0.0327,-0.28613 0.0146,-0.0146 0.0146,-0.0146 0.42998,-0.11456 0.43,-0.11456 0.003,0.0231 0.003,0.0231 -0.004,0.20478 -0.004,0.20476 -0.0515,0.35835 -0.0517,0.35834 -0.0858,0.34099 -0.0858,0.34097 -0.11852,0.30746 -0.11852,0.30746 -0.18679,0.35331 -0.18679,0.35332 0.70902,0.7332 0.70901,0.7332 0.3014,0.32126 0.3014,0.32128 h -0.69648 -0.69649 l -0.2689,-0.28155 -0.26887,-0.28156 -0.35615,-0.36665 -0.35614,-0.36666 -0.24796,0.23555 -0.24796,0.23553 -0.25063,0.17695 -0.25062,0.17696 -0.32423,0.16305 -0.32421,0.16304 -0.27149,0.0908 -0.27148,0.0908 -0.27456,0.0476 -0.27457,0.0476 z m 0.0171,-0.87902 0.54606,-0.0123 0.2389,-0.072 0.2389,-0.0721 0.30715,-0.14854 0.30716,-0.14854 0.27302,-0.20719 0.27302,-0.20722 0.15291,-0.15718 0.15292,-0.15718 -0.0335,-0.0472 -0.0335,-0.0472 -1.60352,-1.689 -1.60353,-1.68899 -0.15022,0.10731 -0.15022,0.10731 -0.36576,0.31199 -0.36576,0.31201 -0.2385,0.27555 -0.2385,0.27555 -0.10854,0.20374 -0.10855,0.20375 -0.0674,0.2636 -0.0674,0.26361 v 0.27746 0.27745 l 0.0522,0.20064 0.0522,0.20062 0.10813,0.20295 0.10813,0.20293 0.15315,0.17033 0.15314,0.17033 0.23652,0.16611 0.23653,0.1661 0.26099,0.10062 0.26099,0.10061 0.23836,0.053 0.23837,0.053 z m -0.56613,-5.85615 h 0.0243 l 0.30035,-0.20495 0.30036,-0.20496 0.29475,-0.23003 0.29476,-0.23001 0.24795,-0.23536 0.24796,-0.23538 0.12563,-0.25416 0.12563,-0.25419 0.0143,-0.30134 0.0144,-0.30135 -0.0584,-0.18543 -0.0584,-0.18543 -0.12549,-0.16714 -0.12549,-0.16713 -0.21472,-0.14432 -0.21472,-0.14431 -0.17716,-0.0532 -0.17717,-0.0532 -0.25646,-0.0202 -0.25645,-0.0202 -0.25028,0.0422 -0.25026,0.0422 -0.26361,0.13192 -0.26363,0.13191 -0.18981,0.199 -0.18981,0.199 -0.0853,0.1688 -0.0853,0.1688 -0.0411,0.19912 -0.0412,0.1991 0.0238,0.20464 0.0238,0.20465 0.11483,0.22762 0.11483,0.22761 0.20538,0.27303 0.20538,0.27302 0.3109,0.34982 0.31092,0.34981 z"
         id="path4"
         sodipodi:nodetypes="ccccccccccccccccccccccccccccccccccccccccccccccccccccccccccccccccccccccccccccccccccccccccccccccccccccccccccccccccccccccccccccccccccccccccccccccccccccccccccccccccccccccccccccccccccccccccccccccccccccccccccccccccccc" /><path
         style="fill:#ffffff;fill-opacity:1;stroke-width:1.36702"
         d="m 83.871784,173.80958 c -0.875984,-0.0652 -1.681266,-0.40877 -2.260608,-0.96455 -0.456611,-0.43803 -0.6967,-0.81779 -0.893947,-1.41392 -0.225352,-0.68106 -0.294633,-1.68372 -0.263451,-3.81289 0.02597,-1.77185 0.08243,-2.27197 0.328521,-2.909 0.399073,-1.033 1.265461,-1.77816 2.41854,-2.08015 0.446631,-0.11702 1.27246,-0.14812 1.753444,-0.0662 1.425088,0.2429 2.46525,1.13342 2.844256,2.43502 0.193884,0.66588 0.202182,0.79414 0.20266,3.13218 4.51e-4,2.24074 -0.0096,2.44559 -0.15368,3.02832 -0.16165,0.65531 -0.429571,1.13807 -0.886797,1.59788 -0.3474,0.34936 -0.672326,0.57307 -1.090374,0.75071 -0.325076,0.13815 -0.832116,0.2668 -1.14191,0.28977 -0.133147,0.01 -0.303436,0.0224 -0.378526,0.028 -0.07505,0.005 -0.290245,-0.001 -0.478128,-0.0153 z m 1.177206,-1.25872 c 0.757997,-0.2197 1.336163,-0.77969 1.551523,-1.50276 0.144453,-0.48498 0.164684,-0.77302 0.180583,-2.57036 0.01627,-1.83719 -0.0096,-2.42051 -0.128636,-2.97547 -0.256207,-1.18796 -1.231792,-1.88001 -2.558468,-1.81491 -0.615635,0.0302 -1.117536,0.20706 -1.511469,0.53259 -0.441737,0.36502 -0.675634,0.80931 -0.792651,1.50556 -0.08694,0.51709 -0.129593,2.24983 -0.08708,3.53087 0.03814,1.14661 0.07792,1.48719 0.223028,1.90432 0.258763,0.74407 0.883161,1.26764 1.719611,1.44193 0.338337,0.0705 1.075555,0.0433 1.403612,-0.0518 z m 14.146693,1.27067 c -1.326976,-0.0623 -2.352963,-0.82207 -2.710192,-2.00674 -0.184602,-0.61223 -0.182606,-0.56116 -0.197588,-5.04124 l -0.01394,-4.15511 h 0.616169 0.616169 l 0.0012,3.69437 c 6.84e-4,2.03192 0.01531,3.94011 0.03253,4.24043 0.04949,0.86344 0.183303,1.26392 0.541858,1.62145 0.322985,0.32207 0.741976,0.47782 1.283,0.47694 0.767041,-0.001 1.317961,-0.30931 1.602601,-0.8961 0.24843,-0.51216 0.23666,-0.27887 0.24965,-4.94786 l 0.0123,-4.18923 h 0.61106 0.61105 l 0.0137,4.13804 c 0.0123,3.70725 0.0197,4.16825 0.0712,4.42813 0.18857,0.95105 0.8157,1.46859 1.77769,1.46702 0.76543,-0.001 1.32716,-0.31719 1.60351,-0.90188 0.13342,-0.28217 0.17819,-0.46398 0.22347,-0.90641 0.0194,-0.18949 0.0335,-1.96586 0.0338,-4.27457 l 5.9e-4,-3.95033 h 0.61431 0.61431 v 3.98708 c 0,2.64549 -0.0123,4.1125 -0.0375,4.35986 -0.0849,0.84501 -0.33104,1.45823 -0.7745,1.92962 -0.59097,0.62822 -1.30945,0.92136 -2.25957,0.92191 -1.05477,6.2e-4 -1.86904,-0.38685 -2.36187,-1.12388 l -0.12098,-0.18094 -0.15576,0.21829 c -0.53221,0.74582 -1.43685,1.14102 -2.497696,1.09115 z m 36.773157,-0.0153 c -1.48033,-0.10376 -2.66321,-0.99345 -3.10033,-2.33196 -0.20774,-0.63615 -0.27706,-1.46438 -0.27706,-3.30996 0,-2.15586 0.0945,-2.97674 0.42456,-3.6913 0.23827,-0.51572 0.66317,-1.01634 1.13297,-1.33489 0.61709,-0.41843 1.3412,-0.62204 2.21233,-0.62204 0.7633,0 1.47795,0.16973 2.14531,0.5095 0.42294,0.21534 0.78688,0.4718 0.74623,0.52584 -0.0164,0.0219 -0.17882,0.23502 -0.36087,0.47373 l -0.33096,0.43401 -0.1784,-0.13588 c -0.26126,-0.19898 -0.76069,-0.43291 -1.14171,-0.53475 -0.28839,-0.0771 -0.40517,-0.0895 -0.86254,-0.0917 -0.45455,-0.003 -0.56719,0.008 -0.80047,0.0757 -0.81786,0.23556 -1.37734,0.81039 -1.58491,1.62841 -0.10662,0.42044 -0.13782,0.83152 -0.16051,2.1196 -0.0232,1.31815 0.0223,2.69644 0.1043,3.16013 0.16575,0.93664 0.6694,1.54502 1.52543,1.84262 0.31231,0.10854 0.3309,0.11086 0.89908,0.10936 0.51851,-0.001 0.616,-0.0109 0.91709,-0.0924 0.41513,-0.11209 0.8103,-0.30028 1.16565,-0.55523 l 0.27056,-0.19411 0.11428,0.13205 c 0.22109,0.25544 0.62101,0.75554 0.62101,0.77658 0,0.0604 -0.61204,0.46197 -0.97127,0.63727 -0.78889,0.38497 -1.58664,0.5342 -2.5098,0.46952 z m 15.18704,0.003 c -0.79277,-0.0521 -1.51618,-0.32611 -2.10536,-0.79751 -0.72362,-0.57897 -1.13557,-1.40822 -1.28019,-2.57696 -0.0619,-0.5004 -0.0622,-3.99482 -2.9e-4,-4.52198 0.12413,-1.05779 0.44631,-1.78662 1.05575,-2.38815 0.66902,-0.66033 1.58975,-1.00762 2.67137,-1.00762 1.8045,0 3.17926,0.99273 3.59601,2.59669 0.15921,0.61278 0.17517,0.89076 0.17517,3.05154 0,2.14821 -0.0159,2.43066 -0.17095,3.04198 -0.24583,0.96909 -0.87377,1.75913 -1.74356,2.19368 -0.6676,0.33352 -1.36484,0.46305 -2.19795,0.40833 z m 1.10917,-1.24053 c 0.40043,-0.10991 0.76329,-0.318 1.04125,-0.59694 0.29395,-0.29496 0.43595,-0.53956 0.55822,-0.96143 0.15582,-0.53776 0.1752,-0.85606 0.1752,-2.87921 0,-2.01272 -0.0198,-2.31078 -0.19196,-2.87573 -0.31365,-1.02981 -1.28702,-1.63655 -2.51471,-1.56751 -1.15942,0.0652 -1.95327,0.6846 -2.22122,1.7331 -0.12987,0.50804 -0.15535,0.95867 -0.15535,2.74426 0,1.78404 0.0253,2.23132 0.15514,2.74732 0.0848,0.33652 0.29622,0.75869 0.49055,0.97912 0.2863,0.32474 0.77335,0.59233 1.29775,0.713 0.27309,0.0629 1.08308,0.0414 1.36513,-0.036 z m 5.84967,1.24251 c -0.43385,-0.0683 -0.70834,-0.43418 -0.67138,-0.8947 0.0401,-0.49906 0.34964,-0.77533 0.86878,-0.77533 0.54812,0 0.92305,0.48489 0.80002,1.03467 -0.10102,0.45173 -0.50997,0.71218 -0.99742,0.63536 z M 36.254825,169.53863 c 0.01217,-4.60592 0.007,-4.48074 0.216541,-5.10785 0.238115,-0.71229 0.737337,-1.26574 1.447125,-1.60433 0.508047,-0.24233 0.742301,-0.28861 1.467513,-0.28993 0.701839,-0.001 0.872071,0.0291 1.319896,0.23581 0.441876,0.20394 0.788714,0.49702 1.028374,0.86902 l 0.119874,0.18606 0.05427,-0.0828 c 0.520668,-0.79459 1.374602,-1.22619 2.428442,-1.22739 0.611199,-7e-4 1.004782,0.0908 1.516441,0.3525 0.21248,0.10868 0.344942,0.21179 0.597325,0.465 0.375373,0.37659 0.511779,0.59125 0.670748,1.05556 0.232177,0.67812 0.225096,0.526 0.240457,5.16543 l 0.01387,4.18925 h -0.61616 -0.616157 l -0.0011,-3.72851 c -0.0011,-3.91949 -0.0194,-4.61251 -0.133257,-5.05351 -0.225119,-0.87191 -0.87804,-1.32318 -1.845104,-1.27524 -0.904416,0.0448 -1.450455,0.50185 -1.65927,1.3887 -0.05553,0.23584 -0.0612,0.58648 -0.07215,4.46225 l -0.01189,4.20631 h -0.611062 -0.61106 l -0.0134,-4.15511 c -0.01203,-3.72817 -0.01937,-4.18492 -0.0711,-4.4452 -0.108746,-0.54724 -0.388185,-0.98534 -0.777798,-1.21946 -0.525426,-0.31572 -1.41941,-0.32479 -1.97928,-0.0201 -0.345624,0.18811 -0.646833,0.60355 -0.761572,1.05039 -0.107693,0.4194 -0.120448,0.93345 -0.120475,4.85616 l -2.9e-5,3.93329 h -0.615575 -0.615575 z m 19.376202,-1.3566 v -5.5629 h 0.61431 0.61431 v 5.5629 5.56291 h -0.61431 -0.61431 z m 9.467342,5.51555 c -0.01094,-0.0269 -0.0123,-2.1351 -0.0041,-4.68488 0.01367,-4.25074 0.01914,-4.65724 0.07354,-4.89193 0.08284,-0.35785 0.230274,-0.6482 0.448819,-0.88425 0.236425,-0.25536 0.456365,-0.39657 0.791065,-0.5079 0.252734,-0.0841 0.305255,-0.0886 1.201758,-0.10198 1.395368,-0.0211 1.995543,0.0659 2.648786,0.38373 1.389312,0.67587 2.072451,2.32713 1.649907,3.98807 -0.223234,0.87743 -0.738763,1.53281 -1.615636,2.05389 -0.05085,0.0302 0.05372,0.29642 0.916871,2.33465 0.535871,1.2653 0.9743,2.31346 0.9743,2.32926 0,0.0157 -0.295781,0.0287 -0.657316,0.0287 h -0.657316 l -0.903912,-2.1709 -0.903926,-2.17091 -0.170768,0.0205 c -0.09391,0.0109 -0.704328,0.0206 -1.356463,0.0208 l -1.185709,3e-4 -0.0082,2.14154 -0.0082,2.14154 -0.606546,0.01 c -0.501298,0.008 -0.609798,8.3e-4 -0.625314,-0.0396 z m 3.605191,-5.44734 c 0.843463,-0.08 1.343682,-0.33657 1.702756,-0.87344 0.247006,-0.3693 0.348972,-0.70914 0.369423,-1.23122 0.04634,-1.18408 -0.518441,-2.00186 -1.565521,-2.26662 -0.245653,-0.0621 -0.41977,-0.0749 -1.227622,-0.09 -0.801195,-0.015 -0.969543,-0.01 -1.13055,0.0373 -0.247348,0.0719 -0.413782,0.24902 -0.466946,0.49691 -0.02502,0.11702 -0.03787,0.81313 -0.03787,2.06872 v 1.89244 l 0.99825,-2e-5 c 0.549035,-2e-5 1.160146,-0.0154 1.358022,-0.0342 z"
         id="path5" /></g></g></svg>
