<?xml version="1.0" encoding="utf-8"?>
<!-- Generator: Adobe Illustrator 27.3.1, SVG Export Plug-In . SVG Version: 6.00 Build 0)  -->
<svg version="1.1" id="Layer_1" xmlns="http://www.w3.org/2000/svg" xmlns:xlink="http://www.w3.org/1999/xlink" x="0px" y="0px"
	 viewBox="0 0 1865.9 1099.85" style="enable-background:new 0 0 1865.9 1099.85;" xml:space="preserve">

<g>
	<path class="st0" d="M470.69,411.58H227.21v353.17c0,110.02,60.19,117.29,124.82,133.91c47.98,12.34,84.79,31.27,118.66,68.04
		c33.87-36.77,70.68-55.69,118.67-68.04c64.63-16.62,124.82-23.89,124.82-133.91V411.58H470.69L470.69,411.58z M435.93,401.45
		c12.72-11.21,16.2-28.25,16.92-43.37h-52.13c-1.01,17.39-9.64,33.22-23.12,43.37H435.93L435.93,401.45z M505.46,401.45
		c-12.71-11.21-16.2-28.25-16.92-43.37h52.13c1.01,17.39,9.64,33.22,23.12,43.37H505.46L505.46,401.45z M757.13,377.4l-42.62,24.05
		h-70.43L855,283.02c5.14-2.89,11.13-2.85,16.05-0.43c6.53,2.97,10.75,10.87,9.43,17.91c-0.74,5.11-3.76,9.83-8.62,12.56
		l-10.98,6.16l48.21,86.07c3.2,5.72,1.12,9.98-2.78,12.17l-36.44,20.41l-30.49-54.44l21.43-12.02l-8.94-15.97l-21.43,12l-13.28-23.7
		l-16.3,9.13l13.28,23.69l-21.44,12.01l8.95,15.98l21.43-12.01l30.5,54.45l-36.43,20.41c-4.37,2.45-8.63,1.72-11.82-3.98
		L757.13,377.4L757.13,377.4z M145.4,726.07c14.81,0,26.81,12,26.81,26.81c0,14.81-12,26.81-26.81,26.81
		c-14.81,0-26.81-12-26.81-26.81C118.58,738.08,130.59,726.07,145.4,726.07L145.4,726.07z M57.99,724.94
		c14.81,0,26.81,12.01,26.81,26.81c0,14.81-12.01,26.81-26.81,26.81c-14.81,0-26.82-12.01-26.82-26.81
		C31.17,736.95,43.18,724.94,57.99,724.94L57.99,724.94z M102.69,649.82c14.81,0,26.81,12.01,26.81,26.81
		c0,14.81-12.01,26.81-26.81,26.81c-14.81,0-26.81-12.01-26.81-26.81C75.87,661.82,87.88,649.82,102.69,649.82L102.69,649.82z
		 M217.09,642.83l-56.45,31.66c-0.32-8.91-2.71-17.87-7.37-26.19c-15.65-27.93-50.98-37.9-78.91-22.25
		c-24.61,13.78-35.26,42.84-26.76,68.66c-6.14,1.13-12.19,3.26-17.94,6.48C1.72,716.83-8.24,752.16,7.4,780.09
		c15.65,27.93,50.98,37.9,78.92,22.25c5.74-3.21,10.73-7.27,14.89-11.92c17.58,20.74,47.92,26.82,72.53,13.04
		c27.92-15.65,37.9-50.98,22.25-78.92c-4.66-8.33-11.09-15.06-18.54-19.98l39.65-22.23V642.83L217.09,642.83z M694.16,286.31v-31.02
		h11.94v-11.18h-11.94v-14.65h-12.1v14.65h-11.94v11.18h11.94v31.02H694.16L694.16,286.31z M714.18,305.13V201.6h-11.23v14.01h-9.24
		V201.6h-11.24v14.01h-9.23V201.6h-11.24v133.82c0,19.89-3.36,39.34-17.32,54.35l34.79-20.14
		C704.97,354.86,714.18,337.8,714.18,305.13L714.18,305.13z M247.23,286.31v-31.02h-11.94v-11.18h11.94v-14.65h12.1v14.65h11.93
		v11.18h-11.93v31.02H247.23L247.23,286.31z M227.21,305.13c0,32.67,9.21,49.72,34.72,64.5l34.79,20.14
		c-13.96-15.01-17.32-34.46-17.32-54.35V201.6h-11.24v14.01h-9.23V201.6h-11.24v14.01h-9.24V201.6h-11.23V305.13L227.21,305.13z
		 M193.76,1029.28c0.77-0.96,2.21-1.78,4.29-2.4c2.09-0.62,3.49-0.65,4.14-0.13c0.25,0.19,0.65,0.88,1.11,2.01
		c1.45,3.57,3.45,6.37,5.94,8.34c3.98,3.15,7.22,3.18,9.67,0.09c1.06-1.35,1.34-3.02,0.82-4.95c-0.52-1.94-1.43-4-2.67-6.11
		c-1.23-2.13-2.41-4.37-3.47-6.69c-1.04-2.32-1.45-4.96-1.23-7.87c0.23-2.9,1.51-5.83,3.77-8.68c2.26-2.85,5-4.71,8.13-5.53
		c5.68-1.5,11.42,0.04,17.19,4.61c3.22,2.55,5.58,5.19,7.04,7.86c1.46,2.67,1.75,4.59,0.89,5.68c-0.72,0.92-2.08,1.79-3.96,2.52
		c-1.9,0.73-3.23,0.82-3.94,0.26c-0.15-0.12-0.41-0.63-0.79-1.36c-1.05-2.11-2.76-4.07-4.98-5.82c-2.22-1.75-4.09-2.59-5.56-2.54
		c-1.46,0.06-2.68,0.7-3.58,1.84c-0.89,1.12-1.07,2.69-0.51,4.57c0.55,1.9,1.49,3.91,2.72,5.99c1.23,2.08,2.42,4.33,3.49,6.65
		c1.07,2.34,1.5,5,1.27,7.9c-0.23,2.92-1.43,5.72-3.52,8.36c-2.09,2.64-4.33,4.62-6.64,5.83c-2.32,1.22-4.65,1.81-6.92,1.72
		c-4.41-0.17-8.67-1.89-12.75-5.12c-4.07-3.23-7.02-6.57-8.79-9.98C193.15,1032.91,192.77,1030.54,193.76,1029.28L193.76,1029.28z
		 M171.36,1012.77c-1.25,1.27-0.7,3.05,1.6,5.33l2.02,2c2.3,2.28,4.13,2.76,5.35,1.51l36.47-37.09c1.23-1.24,0.72-3.07-1.59-5.33
		l-2.03-1.99c-2.31-2.26-4.11-2.78-5.36-1.51L171.36,1012.77L171.36,1012.77z M140.72,976.91l39.44-32.63
		c1.34-1.1,3.06-0.39,5.11,2.1l1.76,2.13c2.07,2.49,2.42,4.33,1.11,5.41l-33.76,27.92l11.56,13.97c1.02,1.23,0.48,2.76-1.58,4.46
		l-1.94,1.6c-2.06,1.72-3.66,1.97-4.68,0.72l-17.46-21.11C138.9,979.82,139.05,978.3,140.72,976.91L140.72,976.91z M130.5,929.72
		l6.74,10.15l9.49-11.86l3.66-3.89l-0.18-0.27c-2.39,1-4.09,1.62-5.01,1.86L130.5,929.72L130.5,929.72z M103.03,925.51
		c-0.99,0.64-0.57,2.37,1.26,5.12l1.79,2.7c1.16,1.77,2.36,2.48,3.49,2.17l10.06-2.78l10.6,15.98l-6.46,8.19
		c-0.75,0.95-0.37,2.52,1.09,4.74l1.98,2.98c1.49,2.26,2.75,3.04,3.74,2.4c0.35-0.23,0.77-0.59,1.08-1.01l33.65-43.78
		c0.72-0.95,0.33-2.61-1.14-4.81l-2.33-3.52c-1.45-2.19-2.8-3.23-3.99-2.92l-53.43,14C103.67,925.17,103.2,925.4,103.03,925.51
		L103.03,925.51z M253.16,1099.85c-79.38-40.81-155.21-124.74-183.68-201.47l78.63-41.83c28.34,62.56,72.1,119.37,139.87,155.72
		L253.16,1099.85L253.16,1099.85z M688.23,1099.85l-34.82-87.58c67.76-36.35,111.52-93.16,139.87-155.72l78.63,41.83
		C843.44,975.12,767.61,1059.05,688.23,1099.85L688.23,1099.85z M811.11,965.31c1.76,1.26,3.29,1,4.54-0.76l15.91-22.29
		c0.93-1.32,0.3-2.79-1.9-4.35l-2.05-1.46c-2.21-1.56-3.78-1.7-4.72-0.38l-10.52,14.76l-35.66-25.44c-1.4-1-3.06-0.19-4.95,2.45
		l-1.61,2.25c-1.88,2.64-2.11,4.47-0.71,5.48L811.11,965.31L811.11,965.31z M790.02,992.34c1.36,1.16,3.11,0.48,5.2-1.98l1.84-2.18
		c2.1-2.46,2.46-4.3,1.11-5.45l-39.68-33.62c-1.36-1.15-3.09-0.49-5.2,1.98l-1.84,2.17c-2.11,2.48-2.46,4.3-1.1,5.46L790.02,992.34
		L790.02,992.34z M740.92,1040.46c1.17,1.27,2.97,0.8,5.35-1.38l1.73-1.61c2.39-2.19,3-3.95,1.83-5.22l-22.29-24.21l38.59,9.76
		c1.7,0.43,3.54-0.26,5.44-2.02l2.27-2.09c2.38-2.18,2.99-3.96,1.83-5.22l-35.24-38.27c-1.17-1.27-2.95-0.81-5.34,1.39l-1.74,1.59
		c-2.39,2.21-2.99,3.95-1.82,5.22l22.02,23.91l-38.02-9.74c-1.7-0.43-3.52,0.26-5.43,2.02l-2.58,2.37c-2.39,2.2-2.99,3.94-1.82,5.22
		L740.92,1040.46L740.92,1040.46z M470.69,1098.01c-60.07,0-129.66-14.48-186.56-44.83l33.45-88.58
		c49.28,23.72,106.61,38.63,153.12,38.63c46.51,0,103.84-14.91,153.12-38.63l33.45,88.58
		C600.36,1083.53,530.77,1098.01,470.69,1098.01L470.69,1098.01z M566.81,1062.49c0.64,2.07,2,2.79,4.06,2.14l29.9-9.37
		c1.55-0.47,1.91-2.05,1.13-4.6l-0.74-2.41c-0.79-2.55-1.97-3.64-3.53-3.16l-21.05,6.63l-3.9-12.57l18.88-5.96
		c1.51-0.46,1.93-2.05,1.13-4.61l-0.75-2.4c-0.8-2.56-1.98-3.64-3.52-3.16l-18.88,5.97l-3.48-11.26l20.98-6.61
		c1.55-0.48,1.91-2.05,1.12-4.6l-0.74-2.41c-0.79-2.55-1.98-3.63-3.53-3.16l-29.83,9.35c-2.06,0.64-2.78,2-2.14,4.06L566.81,1062.49
		L566.81,1062.49z M494.75,1023.17c0.03,0.21,0.19,0.7,0.56,1.39l25.88,48.67c0.56,1.06,2.19,1.36,4.77,0.94l4.17-0.69
		c2.62-0.43,4.03-1.25,4.21-2.44l8.75-54.43c0.09-0.55,0.07-1.05,0-1.48c-0.2-1.17-1.9-1.49-5.1-0.96l-2.49,0.42
		c-2.62,0.43-4.1,1.46-4.34,3.11l-5.78,39.51l-0.33,0.06l-17.94-35.57c-0.73-1.44-2.45-1.98-5.11-1.53l-2.65,0.44
		C496.08,1021.14,494.55,1022,494.75,1023.17L494.75,1023.17z M465.96,1056.01l12.19-0.09l-4.74-14.44l-1.26-5.2l-0.33,0.01
		c-0.46,2.56-0.89,4.29-1.18,5.21L465.96,1056.01L465.96,1056.01z M447.43,1076.69c0,1.18,1.67,1.77,4.96,1.75l3.26-0.02
		c2.08-0.01,3.37-0.59,3.73-1.74l3.18-9.94l19.18-0.13l3.32,9.88c0.38,1.14,1.94,1.69,4.57,1.67l3.58-0.02
		c2.71-0.01,4.06-0.62,4.05-1.81c0-0.44-0.07-0.93-0.25-1.46l-18.26-52.13c-0.4-1.12-1.99-1.69-4.64-1.67l-4.23,0.03
		c-2.65,0.02-4.23,0.58-4.61,1.73l-17.5,52.39C447.49,1075.98,447.43,1076.48,447.43,1076.69L447.43,1076.69z M411.8,1040.94
		l7.66,0.98c1.67,0.21,3.23-0.29,4.62-1.46c1.38-1.17,2.25-2.75,2.47-4.64c0.22-1.89-0.17-3.5-1.23-4.75
		c-1.06-1.25-2.65-2.01-4.74-2.29l-7.09-0.9L411.8,1040.94L411.8,1040.94z M395.51,1069.74c-0.22,1.71,1.32,2.79,4.5,3.2l2.75,0.35
		c3.19,0.41,4.95-0.25,5.16-1.97l2.51-19.67l3.15,0.41c2.38,0.31,4.11,0.9,5.06,1.75c0.96,0.86,1.96,2.18,2.47,4.13l4.35,16.53
		c0.31,1.19,1.82,1.95,4.46,2.3l3.31,0.42c3.19,0.41,4.9,0.07,5.04-1c0.04-0.33-0.02-0.85-0.21-1.59l-4.82-18.63
		c-0.46-1.79-1.16-3.49-2.06-5.06c-0.89-1.56-1.82-2.6-2.8-3.1l0.04-0.33c3.05-0.7,5.57-2.08,7.53-4.08c1.96-2,3.17-4.56,3.54-7.53
		c1.27-10.1-4.74-16.01-18.13-17.72l-15.71-2.01c-2.15-0.27-3.36,0.66-3.64,2.81L395.51,1069.74L395.51,1069.74z M339.35,1026.6
		c-2.76,9.61-2.72,17.34,0.16,23.09c2.87,5.76,8.69,9.9,17.43,12.43c3.65,1.04,7.47,1.74,11.41,2.09c2.16,0.2,4.08,0.09,5.65-0.4
		c1.56-0.49,2.56-1.38,2.91-2.63l6.25-21.71c0.59-2.08-0.14-3.43-2.22-4.02l-15.85-4.57c-1.56-0.44-2.7,0.63-3.46,3.24l-0.73,2.49
		c-0.76,2.6-0.31,4.14,1.22,4.58l6.87,1.97l-2.87,9.92c-2.08-0.21-4.18-0.62-6.25-1.21c-8.88-2.54-11.63-9.76-8.25-21.54
		c3.38-11.77,9.6-16.38,18.61-13.79c3.9,1.12,7.12,2.75,9.61,4.79c0.85,0.69,1.42,1.09,1.53,1.12c0.93,0.24,2.29-0.37,4.06-1.88
		c1.76-1.53,2.81-2.86,3.14-4c0.44-1.5-1.04-3.34-4.39-5.45c-3.35-2.11-6.95-3.73-10.74-4.83
		C356.06,1001.31,344.67,1008.08,339.35,1026.6L339.35,1026.6z M724.3,642.83l56.45,31.66c0.32-8.91,2.72-17.87,7.37-26.19
		c15.65-27.93,50.98-37.9,78.91-22.25c24.61,13.78,35.27,42.84,26.77,68.66c6.14,1.13,12.19,3.26,17.94,6.48
		c27.93,15.65,37.89,50.98,22.25,78.91c-15.65,27.93-50.98,37.89-78.92,22.25c-5.74-3.21-10.73-7.27-14.89-11.92
		c-17.58,20.74-47.92,26.82-72.53,13.04c-27.92-15.65-37.9-50.98-22.25-78.92c4.66-8.33,11.09-15.06,18.54-19.99l-39.64-22.23
		V642.83L724.3,642.83z M183.67,377.4l-48.19,86.02c-3.19,5.7-7.45,6.42-11.83,3.98l-36.43-20.41l30.5-54.45l21.43,12.01l8.95-15.98
		l-21.44-12.01l13.27-23.69l-16.29-9.13l-13.28,23.7l-21.43-12L80,371.41l21.43,12.01l-30.49,54.44l-36.44-20.41
		c-3.9-2.19-5.99-6.45-2.78-12.17l48.21-86.06l-10.98-6.16c-4.85-2.72-7.87-7.45-8.62-12.56c-1.32-7.04,2.9-14.94,9.43-17.91
		c4.92-2.42,10.91-2.46,16.05,0.43l210.91,118.42h-70.43L183.67,377.4L183.67,377.4z M470.69,320.82
		c-12.32,0-22.71-6.12-28.62-16.52c-5.92,10.4-16.29,16.52-28.37,16.52c-12.08,0-22.45-6.12-28.36-16.52
		c-3.02,5.3-7.38,9.75-12.75,12.67l5.8,13.36c5.11,11.84,11.83,17.97,22.16,17.97h70.14h70.14c10.33,0,17.04-6.14,22.16-17.97
		l5.8-13.36c-5.37-2.93-9.74-7.37-12.75-12.67c-5.92,10.41-16.29,16.52-28.37,16.52c-12.08,0-22.45-6.12-28.37-16.52
		C493.41,314.7,483.01,320.82,470.69,320.82L470.69,320.82z M470.69,228.21c6.28,11.18,17.49,17.56,30.37,17.56
		c12.88,0,24.08-6.38,30.37-17.56c6.26,11.18,18.02,17.56,30.36,17.56c12.34,0,22.26-5.34,28.85-15.1
		c-0.67,29.45-9.27,55.19-18.18,77.53c-6.94-4.2-11.69-8.5-11.69-19.77h13.33v-10.39h-12.86v-13.13h-10.4v13.13h-12.77v10.39h13.25
		c0,11.24-10.36,22.94-23.64,22.94c-13.28,0-23.64-11.28-23.64-22.94h13.36v-10.39h-12.89v-13.13h-10.39v13.13h-12.83v10.39h13.29
		c0,11.56-10.35,22.94-23.89,22.94c-13.54,0-23.89-11.38-23.89-22.94h13.29v-10.39h-12.83v-13.13h-10.39v13.13h-12.89v10.39h13.36
		c0,11.66-10.35,22.94-23.64,22.94c-13.28,0-23.64-11.7-23.64-22.94h13.26v-10.39h-12.78v-13.13h-10.4v13.13h-12.86v10.39h13.33
		c0,11.27-4.75,15.56-11.69,19.77c-8.91-22.34-17.51-48.08-18.18-77.53c6.59,9.76,16.5,15.1,28.85,15.1
		c12.34,0,24.1-6.38,30.36-17.56c6.28,11.18,17.49,17.56,30.37,17.56C453.21,245.77,464.41,239.39,470.69,228.21L470.69,228.21z
		 M470.69,171.87c-12.34,0-22.71-6.12-28.62-16.53c-5.92,10.41-14.14,16.53-28.37,16.53c-14.22,0-29.93-8.93-32.78-26.34
		c-12.43,15.26-20.82,28.25-25.9,46.99c-0.81,3-1.5,6.05-2.07,9.1h14.29v10.4H353.9c0,11.26,11.82,24.3,25.69,24.3
		c13.87,0,25.7-13.11,25.7-24.3h-13.34v-10.4h12.81v-13.17h10.39v13.17h12.82v10.4h-13.34c0,11.29,11.63,24.3,25.69,24.3
		c14.06,0,25.69-13.02,25.69-24.3h-13.34v-10.4h12.82v-13.17h5.2h5.2v13.17h12.82v10.4h-13.34c0,11.29,11.63,24.3,25.69,24.3
		c14.06,0,25.69-13.02,25.69-24.3h-13.34v-10.4h12.82v-13.17h10.39v13.17h12.81v10.4H536.1c0,11.2,11.82,24.3,25.7,24.3
		c13.87,0,25.69-13.05,25.69-24.3h-13.35v-10.4h14.29c-0.57-3.05-1.26-6.1-2.07-9.1c-5.08-18.74-13.47-31.73-25.9-46.99
		c-2.85,17.41-18.55,26.34-32.78,26.34s-22.44-6.12-28.37-16.53C493.4,165.75,483.04,171.87,470.69,171.87L470.69,171.87z
		 M486.25,90.35c21.28,10.33,43.31,25,58.74,38.73h-7.01v10.4h13.34c0,11.77-10.35,22.95-23.64,22.95
		c-13.29,0-23.64-11.17-23.64-22.95h13.34v-10.4h-12.86v-13.17h-10.39v13.17h-12.82v10.4h13.28c0,11.67-10.35,22.95-23.89,22.95
		c-13.54,0-23.89-11.28-23.89-22.95h13.28v-10.4h-12.81v-13.17h-10.39v13.17h-12.86v10.4h13.34c0,11.77-10.35,22.95-23.64,22.95
		c-13.29,0-23.64-11.17-23.64-22.95h13.34v-10.4h-7.01c15.43-13.73,37.46-28.4,58.74-38.72c-1.72-2.78-2.71-6.06-2.71-9.57
		c0-6.84,3.76-12.79,9.32-15.92v-23.6h-22.21V23.87h22.21V0h8.94h8.94v23.87h22.21v17.39h-22.21v23.6
		c5.56,3.13,9.32,9.09,9.32,15.92C488.95,84.29,487.96,87.57,486.25,90.35L486.25,90.35z M795.99,726.07
		c-14.81,0-26.81,12-26.81,26.81c0,14.81,12,26.81,26.81,26.81c14.81,0,26.81-12,26.81-26.81
		C822.8,738.08,810.79,726.07,795.99,726.07L795.99,726.07z M883.4,724.94c-14.81,0-26.81,12-26.81,26.81s12.01,26.81,26.81,26.81
		c14.81,0,26.81-12,26.81-26.81S898.21,724.94,883.4,724.94L883.4,724.94z M838.7,649.82c-14.81,0-26.81,12-26.81,26.81
		c0,14.81,12,26.81,26.81,26.81c14.81,0,26.81-12,26.81-26.81C865.51,661.82,853.51,649.82,838.7,649.82L838.7,649.82z
		 M470.69,822.58c-12.5,0-23.81,9.58-36.51,21.66c-14.26,13.57-32.94,28.87-55.29,22.86l28.62-31.23
		c-11.25-3.67-23.24,1.58-37.18,7.95c-14.35,5.65-29.98,11.89-47.49,1.87l41.57-23.1c-17.34-14.73-62.73,13.77-81.26-13.52
		l61.45-12.65c-13.06-19.52-62.39-2.41-74.6-33.35h70.59c-9.68-22.18-64.99-11.25-74.06-45.98l74.06,10.43
		c-9.59-25.35-62.5-22.3-74.06-61.31l74.06,22.95c-6.31-27.96-65.91-32.25-74.06-78.28l74.06,35.79
		c-5.82-35.57-67.52-42.73-74.06-92.49l75.91,43.27c-0.89-34.8-71.86-52.39-75.91-104.85l76.95,52.6
		c-2.11-43.48-71.65-60.57-76.95-114.16l78.33,47.64c36.19,22.02,53.99,44.03,71.48,89.89c13.2,34.62,28.01,64.61,54.36,64.61
		c26.35,0,41.16-29.98,54.36-64.61c17.49-45.86,35.29-67.87,71.48-89.89l78.32-47.64c-5.29,53.59-74.83,70.68-76.94,114.16
		l76.94-52.6c-4.05,52.46-75.02,70.05-75.91,104.85l75.91-43.27c-6.55,49.76-68.24,56.92-74.06,92.49l74.06-35.79
		c-8.15,46.04-67.75,50.33-74.06,78.28l74.06-22.95c-11.56,39-64.48,35.95-74.06,61.31l74.06-10.43
		c-9.08,34.73-64.38,23.8-74.06,45.98h70.59c-12.2,30.95-61.54,13.83-74.6,33.35l61.45,12.65c-18.53,27.29-63.92-1.2-81.26,13.52
		l41.57,23.1c-17.51,10.02-33.13,3.78-47.49-1.87c-13.94-6.36-25.92-11.61-37.18-7.95l28.62,31.23
		c-22.35,6.02-41.02-9.29-55.29-22.86C494.5,832.16,483.19,822.58,470.69,822.58L470.69,822.58z M475.74,659.78h103.51v136.89
		H475.74V659.78L475.74,659.78z M362.14,659.78h103.51v136.89H362.14V659.78L362.14,659.78z M409.64,688.17h7.94
		c3.42,0,5.34,0.33,6.43,3.24l25.48,68.06c0.37,0.99,0.46,1.66,0.46,1.95c0,1.6-2.33,2.39-6.99,2.39h-2.95
		c-2.97,0-4.75-0.8-5.26-2.28l-4.58-13.25H413.9h-16.29l-4.58,13.25c-0.53,1.51-2.3,2.28-5.26,2.28h-2.94
		c-4.66,0-6.98-0.79-6.98-2.39c0-0.29,0.09-0.96,0.45-1.95l25.52-68.06C404.89,688.53,406.25,688.17,409.64,688.17L409.64,688.17z
		 M413.9,704.12h0.46l11.2,30.96h-23.36l11.24-30.96H413.9L413.9,704.12z M527.5,685.46c22.57,0,34.54,19.27,34.54,35.07
		c0,11.08-4.08,20.97-14.25,29.17l12.72-0.37c2.16-0.08,3.9,1.33,3.9,4.6v4.31c0,3.62-1.3,4.95-3.43,4.95h-25.92
		c-2.14,0-3.26-1.02-3.26-4.37v-4.61c0-2.06,1.02-3.34,1.87-4.07c8.23-7.12,13.02-15.77,13.15-26.52
		c0.14-11.59-6.09-23.22-19.31-23.22c-13.23,0-19.45,11.62-19.32,23.22c0.13,10.75,4.92,19.4,13.15,26.52
		c0.85,0.74,1.88,2.01,1.88,4.07v4.61c0,3.35-1.12,4.37-3.26,4.37h-25.92c-2.13,0-3.43-1.33-3.43-4.95v-4.31
		c0-3.26,1.73-4.68,3.89-4.6l12.72,0.37c-10.16-8.2-14.25-18.09-14.25-29.17C492.96,704.73,504.92,685.46,527.5,685.46z" fill-rule="evenodd" clip-rule="evenodd"/>
	<path class="st0" d="M1115.94,654.79c0,9.25-3.39,14.85-13.38,17.23l-17.81,4.25v32h123.37v-32l-26.74-4.25
		c-9.97-1.59-12.14-7.1-12.14-17.23v-48.83h46.94c53.86,0,100.79-28.95,100.79-94.5s-46.51-94.79-100.79-94.79h-131.76v32
		l18.76,4.05c10.09,2.17,12.76,8.41,12.76,18.46V654.79L1115.94,654.79z M1259.63,511.2c0,35.9-18.41,54.29-48.38,54.29h-41.74
		V456.9h41.74C1241.26,456.9,1259.63,475.3,1259.63,511.2L1259.63,511.2z M1853.64,651.89c-22.27,9.72-45.79,15.63-67.47,15.63
		c-46.27,0-84.05-26.69-84.05-104.64c0-56.85,11.02-108.14,67.67-108.14c12.59,0,25.8,2.63,41.84,8.51l8.5,42.52h39.29l6.48-70.06
		c-33.96-18.61-59.78-23.1-86.11-23.1c-97.19,0-135.01,68.04-135.01,153.09c0,107.54,60.78,145.89,126.05,145.89
		c32.4,0,61.59-7,90.56-20.64L1853.64,651.89L1853.64,651.89z M1478.58,712.33c65.99,0,108.53-35.25,108.53-98.02v-146.2
		c0-9.5,5.02-13.8,11.99-15.28l19.59-4.16v-32h-117.11v32l19.68,4.16c6.86,1.45,11.89,6.03,11.89,15.28v139.73
		c0,48.96-27.16,61.97-54.57,61.97c-27.42,0-54.57-12.97-54.57-61.97V468.11c0-9.29,5.04-13.83,11.89-15.28l19.69-4.16v-32h-117.11
		v32l19.58,4.16c6.97,1.48,11.99,5.8,11.99,15.28v146.2C1370.05,677.06,1412.59,712.33,1478.58,712.33L1478.58,712.33z
		 M1389.2,928.57c41.83,0,67.91-31.51,67.91-74.35c0-45.96-22.82-75.12-67.91-75.12c-41.87,0-67.92,32.28-67.92,75.12
		C1321.28,900.19,1344.16,928.57,1389.2,928.57L1389.2,928.57z M1389.2,907.46c-26.44,0-38.26-21.04-38.26-53.24
		s12.56-54.01,38.26-54.01c25.7,0,38.25,21.8,38.25,54.01S1415.65,907.46,1389.2,907.46L1389.2,907.46z M1241.31,926.57v-15.96
		l9-2.12c4.97-1.17,6.68-3.98,6.68-8.59v-91.56c0-5.01-1.39-8.11-6.37-9.2l-9.3-2.03v-15.95h56.52v15.95l-9.31,2.03
		c-4.98,1.08-6.36,4.25-6.36,9.2v91.56c0,4.55,1.71,7.42,6.67,8.59l9,2.12v15.96H1241.31L1241.31,926.57z M1136.67,900.51
		l-0.07-30.22h9.23c5.69,0,9.34,3.89,11.68,7.08l25.21,34.25c7.63,10.36,17.57,16.95,28.61,16.95c5.5,0,11.23-1.44,16.97-4.57
		l0.07-18.03c-1.62,0.81-6.26,1.62-9.29,1.62c-5.05,0-9.62-3.69-15.75-11.72l-16.86-22.05c-4.09-5.35-8.66-7.32-13.43-8.16
		c10.7-1.82,34.53-10.54,34.53-40.5c0-29.96-20.53-43.99-51.35-43.99h-61.73v15.95l9.3,2.03c5.03,1.1,6.37,4.28,6.37,9.2v91.56
		c0,4.53-1.79,7.44-6.68,8.59l-8.99,2.12v15.96h61.63v-15.96l-13.33-2.12C1137.95,907.72,1136.69,904.95,1136.67,900.51
		L1136.67,900.51z M1136.78,801.35h17.62c13.94,0,25.5,8.55,25.5,23.8c0,15.25-8.58,24.95-25.5,24.95h-17.62V801.35z" fill-rule="evenodd" clip-rule="evenodd"/>
	<rect x="-170.29" y="-53.63" class="st1" width="2204.66" height="1321.66" fill-rule="evenodd" clip-rule="evenodd" fill="none"/>
</g>
</svg>
